# Blender 4.3.2
# www.blender.org
mtllib arrow.mtl
o Cube
v -0.325789 -4.960105 0.325790
v -0.325791 -4.960105 -1.057037
v 0.325790 -4.960105 0.325789
v 0.325788 -4.960105 -1.057037
v -0.000001 -4.960105 -1.057037
v 0.000001 -4.960105 0.593058
v -0.798190 -4.960105 -0.023695
v 0.798190 -4.960105 -0.023697
v -0.000000 -4.960105 -0.023696
v -0.329800 -4.960105 -0.028589
v -0.000000 -4.960105 -0.028590
v 0.329800 -4.960105 -0.028590
v -0.325789 -4.729049 0.325790
v -0.325791 -4.729049 -1.057037
v 0.325790 -4.729049 0.325789
v 0.325788 -4.729049 -1.057037
v -0.000001 -4.729049 -1.057037
v 0.000001 -4.729049 0.593058
v -0.798190 -4.729049 -0.023695
v 0.798190 -4.729049 -0.023697
v -0.000000 -4.729049 -0.023696
v -0.329800 -4.729049 -0.028589
v -0.000000 -4.729049 -0.028590
v 0.329800 -4.729049 -0.028590
vn -0.0000 -1.0000 -0.0000
vn -0.0000 1.0000 -0.0000
vn -1.0000 -0.0000 -0.0039
vn 0.0104 -0.0000 -0.9999
vn 0.6343 -0.0000 0.7731
vn -0.0104 -0.0000 -0.9999
vn 0.5947 -0.0000 0.8039
vn -0.6343 -0.0000 0.7731
vn -0.0000 -0.0000 -1.0000
vn -0.5947 -0.0000 0.8039
vn 1.0000 -0.0000 -0.0039
vt 0.750000 0.588352
vt 0.750000 0.750000
vt 0.875000 0.750000
vt 0.875000 0.588352
vt 0.625000 0.588352
vt 0.625000 0.750000
vt 0.625000 0.500000
vt 0.625000 0.549306
vt 0.750000 0.549306
vt 0.750000 0.500000
vt 0.875000 0.549306
vt 0.875000 0.500000
s 0
usemtl Material
f 11/1/1 5/2/1 4/3/1 12/4/1
f 10/5/1 2/6/1 5/2/1 11/1/1
f 1/7/1 7/8/1 9/9/1 6/10/1
f 6/10/1 9/9/1 8/11/1 3/12/1
f 7/8/1 10/5/1 11/1/1 9/9/1
f 9/9/1 11/1/1 12/4/1 8/11/1
f 23/1/2 24/4/2 16/3/2 17/2/2
f 22/5/2 23/1/2 17/2/2 14/6/2
f 13/7/2 18/10/2 21/9/2 19/8/2
f 18/10/2 15/12/2 20/11/2 21/9/2
f 19/8/2 21/9/2 23/1/2 22/5/2
f 21/9/2 20/11/2 24/4/2 23/1/2
f 2/6/3 10/5/3 22/5/3 14/6/3
f 8/11/4 12/4/4 24/4/4 20/11/4
f 6/10/5 3/12/5 15/12/5 18/10/5
f 10/5/6 7/8/6 19/8/6 22/5/6
f 3/12/7 8/11/7 20/11/7 15/12/7
f 1/7/8 6/10/8 18/10/8 13/7/8
f 4/3/9 5/2/9 17/2/9 16/3/9
f 7/8/10 1/7/10 13/7/10 19/8/10
f 12/4/11 4/3/11 16/3/11 24/4/11
f 5/2/9 2/6/9 14/6/9 17/2/9
