# Blender 4.3.2
# www.blender.org
mtllib pin.mtl
o Circle
v 0.000000 -3.000000 0.000000
v -0.195090 -3.019215 0.000000
v -0.382683 -3.076120 0.000000
v -0.555570 -3.168530 0.000000
v -0.707107 -3.292893 0.000000
v -0.831470 -3.444430 0.000000
v -0.923880 -3.617316 0.000000
v -0.980785 -3.804910 0.000000
v -1.000000 -4.000000 0.000000
v -0.980785 -4.195090 -0.000000
v -0.919694 -4.382683 -0.000000
v -0.813648 -4.555570 -0.000000
v -0.666734 -4.765557 -0.000000
v -0.468886 -5.171058 -0.000000
v -0.264948 -5.649925 -0.000000
v -0.108935 -6.037294 -0.000000
v 0.000000 -6.187186 -0.000000
v 0.108935 -6.037294 -0.000000
v 0.264948 -5.649925 -0.000000
v 0.468886 -5.171058 -0.000000
v 0.666734 -4.765558 -0.000000
v 0.813648 -4.555570 -0.000000
v 0.919694 -4.382683 -0.000000
v 0.980785 -4.195090 -0.000000
v 1.000000 -4.000000 0.000000
v 0.980785 -3.804910 0.000000
v 0.923880 -3.617316 0.000000
v 0.831470 -3.444430 0.000000
v 0.707107 -3.292893 0.000000
v 0.555570 -3.168530 0.000000
v 0.382683 -3.076120 0.000000
v 0.195090 -3.019215 0.000000
v 0.000000 -2.467713 0.000000
v -0.298934 -2.497156 0.000000
v -0.586381 -2.584352 0.000000
v -0.851293 -2.725950 0.000000
v -1.083490 -2.916510 0.000000
v -1.274050 -3.148707 0.000000
v -1.415648 -3.413619 0.000000
v -1.502844 -3.701066 0.000000
v -1.532287 -4.000000 -0.000000
v -1.502844 -4.298934 -0.000000
v -1.408005 -4.586381 -0.000000
v -1.225341 -4.851293 -0.000000
v -0.980846 -5.089093 -0.000000
v -0.634874 -5.622765 -0.000000
v -0.278049 -6.440036 -0.000000
v -0.085291 -7.205423 -0.000000
v 0.000000 -7.545468 -0.000000
v 0.085291 -7.205423 -0.000000
v 0.278049 -6.440035 -0.000000
v 0.634874 -5.622764 -0.000000
v 0.980846 -5.089093 -0.000000
v 1.225341 -4.851293 -0.000000
v 1.408005 -4.586381 -0.000000
v 1.502844 -4.298934 -0.000000
v 1.532287 -4.000000 -0.000000
v 1.502844 -3.701066 0.000000
v 1.415648 -3.413619 0.000000
v 1.274050 -3.148707 0.000000
v 1.083490 -2.916510 0.000000
v 0.851293 -2.725950 0.000000
v 0.586381 -2.584352 0.000000
v 0.298934 -2.497156 0.000000
v 0.000000 -3.649936 0.000000
v -0.068294 -3.656663 0.000000
v -0.133964 -3.676583 0.000000
v -0.194485 -3.708933 0.000000
v -0.247532 -3.752468 0.000000
v -0.291067 -3.805515 0.000000
v -0.323417 -3.866036 0.000000
v -0.343337 -3.931706 0.000000
v -0.350064 -4.000000 0.000000
v -0.343337 -4.068294 -0.000000
v -0.323377 -4.133964 -0.000000
v -0.290643 -4.194485 -0.000000
v -0.246577 -4.247532 -0.000000
v -0.193181 -4.291067 -0.000000
v -0.132713 -4.323417 -0.000000
v -0.067522 -4.344825 -0.000000
v 0.000000 -4.353198 -0.000000
v 0.067522 -4.344825 -0.000000
v 0.132713 -4.323417 -0.000000
v 0.193181 -4.291067 -0.000000
v 0.246577 -4.247532 -0.000000
v 0.290643 -4.194485 -0.000000
v 0.323377 -4.133964 -0.000000
v 0.343337 -4.068294 -0.000000
v 0.350064 -4.000000 0.000000
v 0.343337 -3.931706 0.000000
v 0.323417 -3.866036 0.000000
v 0.291067 -3.805515 0.000000
v 0.247532 -3.752468 0.000000
v 0.194485 -3.708933 0.000000
v 0.133964 -3.676583 0.000000
v 0.068294 -3.656663 0.000000
v 0.000000 -3.000000 0.539434
v -0.195090 -3.019215 0.539434
v -0.382683 -3.076120 0.539434
v -0.555570 -3.168530 0.539434
v -0.707107 -3.292893 0.539434
v -0.831470 -3.444430 0.539434
v -0.923880 -3.617316 0.539434
v -0.980785 -3.804910 0.539434
v -1.000000 -4.000000 0.539434
v -0.980785 -4.195090 0.539434
v -0.919694 -4.382683 0.539434
v -0.813648 -4.555570 0.539434
v -0.666734 -4.765557 0.539434
v -0.468886 -5.171058 0.539434
v -0.264948 -5.649925 0.539434
v -0.108935 -6.037294 0.539434
v 0.000000 -6.187186 0.539434
v 0.108935 -6.037294 0.539434
v 0.264948 -5.649925 0.539434
v 0.468886 -5.171058 0.539434
v 0.666734 -4.765558 0.539434
v 0.813648 -4.555570 0.539434
v 0.919694 -4.382683 0.539434
v 0.980785 -4.195090 0.539434
v 1.000000 -4.000000 0.539434
v 0.980785 -3.804910 0.539434
v 0.923880 -3.617316 0.539434
v 0.831470 -3.444430 0.539434
v 0.707107 -3.292893 0.539434
v 0.555570 -3.168530 0.539434
v 0.382683 -3.076120 0.539434
v 0.195090 -3.019215 0.539434
v 0.000000 -2.467713 0.539434
v -0.298934 -2.497156 0.539434
v -0.586381 -2.584352 0.539434
v -0.851293 -2.725950 0.539434
v -1.083490 -2.916510 0.539434
v -1.274050 -3.148707 0.539434
v -1.415648 -3.413619 0.539434
v -1.502844 -3.701066 0.539434
v -1.532287 -4.000000 0.539434
v -1.502844 -4.298934 0.539434
v -1.408005 -4.586381 0.539434
v -1.225341 -4.851293 0.539434
v -0.980846 -5.089093 0.539434
v -0.634874 -5.622765 0.539434
v -0.278049 -6.440036 0.539434
v -0.085291 -7.205423 0.539434
v 0.000000 -7.545468 0.539434
v 0.085291 -7.205423 0.539434
v 0.278049 -6.440035 0.539434
v 0.634874 -5.622764 0.539434
v 0.980846 -5.089093 0.539434
v 1.225341 -4.851293 0.539434
v 1.408005 -4.586381 0.539434
v 1.502844 -4.298934 0.539434
v 1.532287 -4.000000 0.539434
v 1.502844 -3.701066 0.539434
v 1.415648 -3.413619 0.539434
v 1.274050 -3.148707 0.539434
v 1.083490 -2.916510 0.539434
v 0.851293 -2.725950 0.539434
v 0.586381 -2.584352 0.539434
v 0.298934 -2.497156 0.539434
v 0.000000 -3.276318 0.539434
v -0.141144 -3.290219 0.539434
v -0.276863 -3.331389 0.539434
v -0.401943 -3.398246 0.539434
v -0.511577 -3.488220 0.539434
v -0.601551 -3.597853 0.539434
v -0.668407 -3.722933 0.539434
v -0.709577 -3.858653 0.539434
v -0.723479 -3.999796 0.539434
v -0.709577 -4.140940 0.539434
v -0.668325 -4.276659 0.539434
v -0.600673 -4.401740 0.539434
v -0.509601 -4.511373 0.539434
v -0.399248 -4.601347 0.539434
v -0.274278 -4.668203 0.539434
v -0.139548 -4.712448 0.539434
v 0.000000 -4.729752 0.539434
v 0.139548 -4.712448 0.539434
v 0.274278 -4.668203 0.539434
v 0.399248 -4.601347 0.539434
v 0.509601 -4.511373 0.539434
v 0.600673 -4.401740 0.539434
v 0.668325 -4.276659 0.539434
v 0.709577 -4.140940 0.539434
v 0.723479 -3.999796 0.539434
v 0.709577 -3.858653 0.539434
v 0.668407 -3.722933 0.539434
v 0.601551 -3.597853 0.539434
v 0.511577 -3.488220 0.539434
v 0.401943 -3.398246 0.539434
v 0.276863 -3.331389 0.539434
v 0.141144 -3.290219 0.539434
v -0.080063 -3.597464 0.539434
v 0.000000 -3.589580 0.539434
v -0.157051 -3.620812 0.539434
v -0.228008 -3.658729 0.539434
v -0.290208 -3.709759 0.539434
v -0.341262 -3.771943 0.539434
v -0.379207 -3.842894 0.539434
v -0.402583 -3.919888 0.539434
v -0.410490 -3.999967 0.539434
v -0.402622 -4.080054 0.539434
v -0.379253 -4.157078 0.539434
v -0.341020 -4.228162 0.539434
v -0.289451 -4.290540 0.539434
v -0.226792 -4.341677 0.539434
v -0.155756 -4.379540 0.539434
v -0.079059 -4.403712 0.539434
v 0.000000 -4.412514 0.539434
v 0.079059 -4.403712 0.539434
v 0.155757 -4.379540 0.539434
v 0.226793 -4.341678 0.539434
v 0.289452 -4.290540 0.539434
v 0.341021 -4.228162 0.539434
v 0.379253 -4.157078 0.539434
v 0.402623 -4.080054 0.539434
v 0.410491 -3.999967 0.539434
v 0.402583 -3.919888 0.539434
v 0.379207 -3.842894 0.539434
v 0.341263 -3.771942 0.539434
v 0.290209 -3.709758 0.539434
v 0.228009 -3.658728 0.539434
v 0.157052 -3.620812 0.539434
v 0.080063 -3.597464 0.539434
v -0.080063 -3.597464 0.539434
v 0.000000 -3.589580 0.539434
v -0.157051 -3.620812 0.539434
v -0.228008 -3.658729 0.539434
v -0.290208 -3.709759 0.539434
v -0.341262 -3.771943 0.539434
v -0.379207 -3.842894 0.539434
v -0.402583 -3.919888 0.539434
v -0.410490 -3.999967 0.539434
v -0.402622 -4.080054 0.539434
v -0.379253 -4.157078 0.539434
v -0.341020 -4.228162 0.539434
v -0.289451 -4.290540 0.539434
v -0.226792 -4.341677 0.539434
v -0.155756 -4.379540 0.539434
v -0.079059 -4.403712 0.539434
v 0.000000 -4.412514 0.539434
v 0.079059 -4.403712 0.539434
v 0.155757 -4.379540 0.539434
v 0.226793 -4.341678 0.539434
v 0.289452 -4.290540 0.539434
v 0.341021 -4.228162 0.539434
v 0.379253 -4.157078 0.539434
v 0.402623 -4.080054 0.539434
v 0.410491 -3.999967 0.539434
v 0.402583 -3.919888 0.539434
v 0.379207 -3.842894 0.539434
v 0.341263 -3.771942 0.539434
v 0.290209 -3.709758 0.539434
v 0.228009 -3.658728 0.539434
v 0.157052 -3.620812 0.539434
v 0.080063 -3.597464 0.539434
vn -0.0000 -0.0000 -1.0000
vn -0.0000 -0.0000 1.0000
vn 0.9496 -0.3133 -0.0000
vn -0.9496 -0.3133 -0.0000
vn 0.9952 -0.0980 -0.0000
vn -0.8233 -0.5677 -0.0000
vn 0.9952 0.0980 -0.0000
vn -0.6972 -0.7169 -0.0000
vn 0.9569 0.2903 -0.0000
vn -0.8391 -0.5440 -0.0000
vn 0.8819 0.4714 -0.0000
vn -0.9165 -0.4001 -0.0000
vn -0.0980 0.9952 -0.0000
vn 0.7730 0.6344 -0.0000
vn -0.9697 -0.2442 -0.0000
vn -0.2903 0.9569 -0.0000
vn 0.6344 0.7730 -0.0000
vn -0.9700 -0.2433 -0.0000
vn -0.4714 0.8819 -0.0000
vn 0.4714 0.8819 -0.0000
vn 0.9700 -0.2433 -0.0000
vn -0.6344 0.7730 -0.0000
vn 0.2903 0.9569 -0.0000
vn 0.9697 -0.2442 -0.0000
vn -0.7730 0.6344 -0.0000
vn 0.0980 0.9952 -0.0000
vn 0.9165 -0.4001 -0.0000
vn -0.8819 0.4714 -0.0000
vn 0.8391 -0.5440 -0.0000
vn -0.9569 0.2903 -0.0000
vn 0.6972 -0.7169 -0.0000
vn -0.9952 0.0980 -0.0000
vn 0.8233 -0.5677 -0.0000
vn -0.9952 -0.0980 -0.0000
vt 0.000000 0.000000
s 0
usemtl Material.001
f 20/1/1 52/1/1 51/1/1 19/1/1
f 7/1/1 39/1/1 38/1/1 6/1/1
f 21/1/1 53/1/1 52/1/1 20/1/1
f 8/1/1 40/1/1 39/1/1 7/1/1
f 22/1/1 54/1/1 53/1/1 21/1/1
f 9/1/1 41/1/1 40/1/1 8/1/1
f 23/1/1 55/1/1 54/1/1 22/1/1
f 10/1/1 42/1/1 41/1/1 9/1/1
f 24/1/1 56/1/1 55/1/1 23/1/1
f 11/1/1 43/1/1 42/1/1 10/1/1
f 25/1/1 57/1/1 56/1/1 24/1/1
f 12/1/1 44/1/1 43/1/1 11/1/1
f 26/1/1 58/1/1 57/1/1 25/1/1
f 13/1/1 45/1/1 44/1/1 12/1/1
f 27/1/1 59/1/1 58/1/1 26/1/1
f 14/1/1 46/1/1 45/1/1 13/1/1
f 28/1/1 60/1/1 59/1/1 27/1/1
f 15/1/1 47/1/1 46/1/1 14/1/1
f 2/1/1 34/1/1 33/1/1 1/1/1
f 29/1/1 61/1/1 60/1/1 28/1/1
f 16/1/1 48/1/1 47/1/1 15/1/1
f 3/1/1 35/1/1 34/1/1 2/1/1
f 30/1/1 62/1/1 61/1/1 29/1/1
f 17/1/1 49/1/1 48/1/1 16/1/1
f 4/1/1 36/1/1 35/1/1 3/1/1
f 31/1/1 63/1/1 62/1/1 30/1/1
f 18/1/1 50/1/1 49/1/1 17/1/1
f 5/1/1 37/1/1 36/1/1 4/1/1
f 32/1/1 64/1/1 63/1/1 31/1/1
f 19/1/1 51/1/1 50/1/1 18/1/1
f 6/1/1 38/1/1 37/1/1 5/1/1
f 1/1/1 33/1/1 64/1/1 32/1/1
f 9/1/1 73/1/1 74/1/1 10/1/1
f 66/1/1 65/1/1 96/1/1 95/1/1 94/1/1 93/1/1 92/1/1 91/1/1 90/1/1 89/1/1 88/1/1 87/1/1 86/1/1 85/1/1 84/1/1 83/1/1 82/1/1 81/1/1 80/1/1 79/1/1 78/1/1 77/1/1 76/1/1 75/1/1 74/1/1 73/1/1 72/1/1 71/1/1 70/1/1 69/1/1 68/1/1 67/1/1
f 23/1/1 87/1/1 88/1/1 24/1/1
f 10/1/1 74/1/1 75/1/1 11/1/1
f 24/1/1 88/1/1 89/1/1 25/1/1
f 11/1/1 75/1/1 76/1/1 12/1/1
f 25/1/1 89/1/1 90/1/1 26/1/1
f 12/1/1 76/1/1 77/1/1 13/1/1
f 26/1/1 90/1/1 91/1/1 27/1/1
f 13/1/1 77/1/1 78/1/1 14/1/1
f 27/1/1 91/1/1 92/1/1 28/1/1
f 14/1/1 78/1/1 79/1/1 15/1/1
f 1/1/1 65/1/1 66/1/1 2/1/1
f 28/1/1 92/1/1 93/1/1 29/1/1
f 15/1/1 79/1/1 80/1/1 16/1/1
f 2/1/1 66/1/1 67/1/1 3/1/1
f 29/1/1 93/1/1 94/1/1 30/1/1
f 16/1/1 80/1/1 81/1/1 17/1/1
f 3/1/1 67/1/1 68/1/1 4/1/1
f 30/1/1 94/1/1 95/1/1 31/1/1
f 17/1/1 81/1/1 82/1/1 18/1/1
f 4/1/1 68/1/1 69/1/1 5/1/1
f 31/1/1 95/1/1 96/1/1 32/1/1
f 18/1/1 82/1/1 83/1/1 19/1/1
f 5/1/1 69/1/1 70/1/1 6/1/1
f 32/1/1 96/1/1 65/1/1 1/1/1
f 19/1/1 83/1/1 84/1/1 20/1/1
f 6/1/1 70/1/1 71/1/1 7/1/1
f 20/1/1 84/1/1 85/1/1 21/1/1
f 7/1/1 71/1/1 72/1/1 8/1/1
f 21/1/1 85/1/1 86/1/1 22/1/1
f 8/1/1 72/1/1 73/1/1 9/1/1
f 22/1/1 86/1/1 87/1/1 23/1/1
f 116/1/2 115/1/2 147/1/2 148/1/2
f 103/1/2 102/1/2 134/1/2 135/1/2
f 117/1/2 116/1/2 148/1/2 149/1/2
f 104/1/2 103/1/2 135/1/2 136/1/2
f 118/1/2 117/1/2 149/1/2 150/1/2
f 105/1/2 104/1/2 136/1/2 137/1/2
f 119/1/2 118/1/2 150/1/2 151/1/2
f 106/1/2 105/1/2 137/1/2 138/1/2
f 120/1/2 119/1/2 151/1/2 152/1/2
f 107/1/2 106/1/2 138/1/2 139/1/2
f 121/1/2 120/1/2 152/1/2 153/1/2
f 108/1/2 107/1/2 139/1/2 140/1/2
f 122/1/2 121/1/2 153/1/2 154/1/2
f 109/1/2 108/1/2 140/1/2 141/1/2
f 123/1/2 122/1/2 154/1/2 155/1/2
f 110/1/2 109/1/2 141/1/2 142/1/2
f 124/1/2 123/1/2 155/1/2 156/1/2
f 111/1/2 110/1/2 142/1/2 143/1/2
f 98/1/2 97/1/2 129/1/2 130/1/2
f 125/1/2 124/1/2 156/1/2 157/1/2
f 112/1/2 111/1/2 143/1/2 144/1/2
f 99/1/2 98/1/2 130/1/2 131/1/2
f 126/1/2 125/1/2 157/1/2 158/1/2
f 113/1/2 112/1/2 144/1/2 145/1/2
f 100/1/2 99/1/2 131/1/2 132/1/2
f 127/1/2 126/1/2 158/1/2 159/1/2
f 114/1/2 113/1/2 145/1/2 146/1/2
f 101/1/2 100/1/2 132/1/2 133/1/2
f 128/1/2 127/1/2 159/1/2 160/1/2
f 115/1/2 114/1/2 146/1/2 147/1/2
f 102/1/2 101/1/2 133/1/2 134/1/2
f 97/1/2 128/1/2 160/1/2 129/1/2
f 105/1/2 106/1/2 170/1/2 169/1/2
f 173/1/2 174/1/2 206/1/2 205/1/2
f 119/1/2 120/1/2 184/1/2 183/1/2
f 106/1/2 107/1/2 171/1/2 170/1/2
f 120/1/2 121/1/2 185/1/2 184/1/2
f 107/1/2 108/1/2 172/1/2 171/1/2
f 121/1/2 122/1/2 186/1/2 185/1/2
f 108/1/2 109/1/2 173/1/2 172/1/2
f 122/1/2 123/1/2 187/1/2 186/1/2
f 109/1/2 110/1/2 174/1/2 173/1/2
f 123/1/2 124/1/2 188/1/2 187/1/2
f 110/1/2 111/1/2 175/1/2 174/1/2
f 97/1/2 98/1/2 162/1/2 161/1/2
f 124/1/2 125/1/2 189/1/2 188/1/2
f 111/1/2 112/1/2 176/1/2 175/1/2
f 98/1/2 99/1/2 163/1/2 162/1/2
f 125/1/2 126/1/2 190/1/2 189/1/2
f 112/1/2 113/1/2 177/1/2 176/1/2
f 99/1/2 100/1/2 164/1/2 163/1/2
f 126/1/2 127/1/2 191/1/2 190/1/2
f 113/1/2 114/1/2 178/1/2 177/1/2
f 100/1/2 101/1/2 165/1/2 164/1/2
f 127/1/2 128/1/2 192/1/2 191/1/2
f 114/1/2 115/1/2 179/1/2 178/1/2
f 101/1/2 102/1/2 166/1/2 165/1/2
f 128/1/2 97/1/2 161/1/2 192/1/2
f 115/1/2 116/1/2 180/1/2 179/1/2
f 102/1/2 103/1/2 167/1/2 166/1/2
f 116/1/2 117/1/2 181/1/2 180/1/2
f 103/1/2 104/1/2 168/1/2 167/1/2
f 117/1/2 118/1/2 182/1/2 181/1/2
f 104/1/2 105/1/2 169/1/2 168/1/2
f 118/1/2 119/1/2 183/1/2 182/1/2
f 55/1/3 56/1/3 152/1/3 151/1/3
f 42/1/4 43/1/4 139/1/4 138/1/4
f 56/1/5 57/1/5 153/1/5 152/1/5
f 43/1/6 44/1/6 140/1/6 139/1/6
f 57/1/7 58/1/7 154/1/7 153/1/7
f 44/1/8 45/1/8 141/1/8 140/1/8
f 58/1/9 59/1/9 155/1/9 154/1/9
f 45/1/10 46/1/10 142/1/10 141/1/10
f 59/1/11 60/1/11 156/1/11 155/1/11
f 46/1/12 47/1/12 143/1/12 142/1/12
f 33/1/13 34/1/13 130/1/13 129/1/13
f 60/1/14 61/1/14 157/1/14 156/1/14
f 47/1/15 48/1/15 144/1/15 143/1/15
f 34/1/16 35/1/16 131/1/16 130/1/16
f 61/1/17 62/1/17 158/1/17 157/1/17
f 48/1/18 49/1/18 145/1/18 144/1/18
f 35/1/19 36/1/19 132/1/19 131/1/19
f 62/1/20 63/1/20 159/1/20 158/1/20
f 49/1/21 50/1/21 146/1/21 145/1/21
f 36/1/22 37/1/22 133/1/22 132/1/22
f 63/1/23 64/1/23 160/1/23 159/1/23
f 50/1/24 51/1/24 147/1/24 146/1/24
f 37/1/25 38/1/25 134/1/25 133/1/25
f 64/1/26 33/1/26 129/1/26 160/1/26
f 51/1/27 52/1/27 148/1/27 147/1/27
f 38/1/28 39/1/28 135/1/28 134/1/28
f 52/1/29 53/1/29 149/1/29 148/1/29
f 39/1/30 40/1/30 136/1/30 135/1/30
f 53/1/31 54/1/31 150/1/31 149/1/31
f 40/1/32 41/1/32 137/1/32 136/1/32
f 54/1/33 55/1/33 151/1/33 150/1/33
f 41/1/34 42/1/34 138/1/34 137/1/34
f 221/1/2 222/1/2 254/1/2 253/1/2
f 187/1/2 188/1/2 220/1/2 219/1/2
f 174/1/2 175/1/2 207/1/2 206/1/2
f 161/1/2 162/1/2 193/1/2 194/1/2
f 188/1/2 189/1/2 221/1/2 220/1/2
f 175/1/2 176/1/2 208/1/2 207/1/2
f 162/1/2 163/1/2 195/1/2 193/1/2
f 189/1/2 190/1/2 222/1/2 221/1/2
f 176/1/2 177/1/2 209/1/2 208/1/2
f 163/1/2 164/1/2 196/1/2 195/1/2
f 190/1/2 191/1/2 223/1/2 222/1/2
f 177/1/2 178/1/2 210/1/2 209/1/2
f 164/1/2 165/1/2 197/1/2 196/1/2
f 191/1/2 192/1/2 224/1/2 223/1/2
f 178/1/2 179/1/2 211/1/2 210/1/2
f 165/1/2 166/1/2 198/1/2 197/1/2
f 192/1/2 161/1/2 194/1/2 224/1/2
f 179/1/2 180/1/2 212/1/2 211/1/2
f 166/1/2 167/1/2 199/1/2 198/1/2
f 180/1/2 181/1/2 213/1/2 212/1/2
f 167/1/2 168/1/2 200/1/2 199/1/2
f 181/1/2 182/1/2 214/1/2 213/1/2
f 168/1/2 169/1/2 201/1/2 200/1/2
f 182/1/2 183/1/2 215/1/2 214/1/2
f 169/1/2 170/1/2 202/1/2 201/1/2
f 183/1/2 184/1/2 216/1/2 215/1/2
f 170/1/2 171/1/2 203/1/2 202/1/2
f 184/1/2 185/1/2 217/1/2 216/1/2
f 171/1/2 172/1/2 204/1/2 203/1/2
f 185/1/2 186/1/2 218/1/2 217/1/2
f 172/1/2 173/1/2 205/1/2 204/1/2
f 186/1/2 187/1/2 219/1/2 218/1/2
f 225/1/2 227/1/2 228/1/2 229/1/2 230/1/2 231/1/2 232/1/2 233/1/2 234/1/2 235/1/2 236/1/2 237/1/2 238/1/2 239/1/2 240/1/2 241/1/2 242/1/2 243/1/2 244/1/2 245/1/2 246/1/2 247/1/2 248/1/2 249/1/2 250/1/2 251/1/2 252/1/2 253/1/2 254/1/2 255/1/2 256/1/2 226/1/2
f 208/1/2 209/1/2 241/1/2 240/1/2
f 195/1/2 196/1/2 228/1/2 227/1/2
f 222/1/2 223/1/2 255/1/2 254/1/2
f 209/1/2 210/1/2 242/1/2 241/1/2
f 196/1/2 197/1/2 229/1/2 228/1/2
f 223/1/2 224/1/2 256/1/2 255/1/2
f 210/1/2 211/1/2 243/1/2 242/1/2
f 197/1/2 198/1/2 230/1/2 229/1/2
f 224/1/2 194/1/2 226/1/2 256/1/2
f 211/1/2 212/1/2 244/1/2 243/1/2
f 198/1/2 199/1/2 231/1/2 230/1/2
f 212/1/2 213/1/2 245/1/2 244/1/2
f 199/1/2 200/1/2 232/1/2 231/1/2
f 213/1/2 214/1/2 246/1/2 245/1/2
f 200/1/2 201/1/2 233/1/2 232/1/2
f 214/1/2 215/1/2 247/1/2 246/1/2
f 201/1/2 202/1/2 234/1/2 233/1/2
f 215/1/2 216/1/2 248/1/2 247/1/2
f 202/1/2 203/1/2 235/1/2 234/1/2
f 216/1/2 217/1/2 249/1/2 248/1/2
f 203/1/2 204/1/2 236/1/2 235/1/2
f 217/1/2 218/1/2 250/1/2 249/1/2
f 204/1/2 205/1/2 237/1/2 236/1/2
f 218/1/2 219/1/2 251/1/2 250/1/2
f 205/1/2 206/1/2 238/1/2 237/1/2
f 219/1/2 220/1/2 252/1/2 251/1/2
f 206/1/2 207/1/2 239/1/2 238/1/2
f 194/1/2 193/1/2 225/1/2 226/1/2
f 220/1/2 221/1/2 253/1/2 252/1/2
f 207/1/2 208/1/2 240/1/2 239/1/2
f 193/1/2 195/1/2 227/1/2 225/1/2
